<svg width="28" height="34" viewBox="0 0 28 34" fill="none" xmlns="http://www.w3.org/2000/svg">
<path d="M18.766 6.76602C17.1404 8.3916 14.0566 7.94337 14.0566 7.94337C14.0566 7.94337 13.6084 4.85956 15.234 3.23398C16.8596 1.6084 19.9434 2.05663 19.9434 2.05663C19.9434 2.05663 20.3916 5.14044 18.766 6.76602Z" stroke="#141B34" stroke-width="3" stroke-linejoin="round"/>
<path d="M2 20.089C2 25.0116 5.29468 30.6655 8.62834 31.8603C9.78409 32.2746 10.9787 31.7029 11.9718 30.9911C12.7253 30.4511 13.6376 29.9354 14.3745 29.9354C15.1113 29.9354 16.0237 30.4511 16.7772 30.9911C17.7703 31.7029 18.9649 32.2746 20.1206 31.8603C22.4895 31.0113 24.8386 27.9108 26 24.421C23.7512 23.7769 22.1086 21.7421 22.1086 19.3316C22.1086 17.1232 23.4872 15.2302 25.4477 14.4329C24.1846 12.1896 22.1204 11 19.7883 11C18.5819 11 17.4731 11.4863 16.5775 12.0693C15.1479 12.9997 13.6011 12.9997 12.1715 12.0693C11.2758 11.4863 10.1671 11 8.96065 11C5.11639 11 2 14.2327 2 20.089Z" stroke="#141B34" stroke-width="3" stroke-linejoin="round"/>
</svg>
