<svg width="18" height="18" viewBox="0 0 18 18" fill="none" xmlns="http://www.w3.org/2000/svg">
<g clip-path="url(#clip0_17_40)">
<path d="M7.57497 5.97501C6.29997 6.83751 6.56247 9.08751 7.98747 9.87501C8.88747 10.3625 9.11247 10.3625 10.05 9.87501C11.4375 9.08751 11.7 6.83751 10.425 5.97501C9.97497 5.63751 9.33747 5.37501 8.99997 5.37501C8.66247 5.37501 8.02497 5.63751 7.57497 5.97501ZM10.125 6.65001C11.175 7.96251 9.71247 10.1375 8.36247 9.27501C7.01247 8.45001 7.49997 6.12501 8.99997 6.12501C9.37497 6.12501 9.86247 6.38751 10.125 6.65001Z" fill="black" stroke="black" stroke-width="0.2"/>
<path d="M2.47498 7.85001C1.72498 8.60001 1.72498 9.65001 2.47498 10.4C3.59998 11.5625 5.62498 10.7375 5.62498 9.12501C5.62498 8.22501 4.64998 7.25001 3.74998 7.25001C3.37498 7.25001 2.77498 7.51251 2.47498 7.85001ZM4.68748 9.12501C4.68748 9.80001 4.46248 10.1 3.82498 10.175C2.92498 10.325 2.39998 9.50001 2.77498 8.52501C2.88748 8.18751 3.33748 8.00001 3.82498 8.07501C4.46248 8.15001 4.68748 8.45001 4.68748 9.12501Z" fill="black" stroke="black" stroke-width="0.2"/>
<path d="M12.975 7.85C11.8125 8.975 12.6375 11 14.25 11C15.15 11 16.125 10.025 16.125 9.125C16.125 8.225 15.15 7.25 14.25 7.25C13.875 7.25 13.275 7.5125 12.975 7.85ZM15.1875 9.125C15.1875 9.8 14.9625 10.1 14.325 10.175C13.425 10.325 12.9 9.5 13.275 8.525C13.3875 8.1875 13.8375 8 14.325 8.075C14.9625 8.15 15.1875 8.45 15.1875 9.125Z" fill="black" stroke="black" stroke-width="0.2"/>
<path d="M7.0125 11.9375C6.225 12.3125 5.7375 12.3875 5.25 12.125C3.5625 11.225 1.125 12.1625 0.375 14C0 14.9 0 15.2375 0.375 15.6875C0.9 16.325 3.375 16.475 3.375 15.875C3.375 15.65 2.775 15.5 2.0625 15.5C0.45 15.5 0.3375 14.75 1.6875 13.4C2.4 12.6875 2.9625 12.5 3.8625 12.575C5.1375 12.6875 5.1375 12.65 4.6125 15.275C4.3125 16.775 4.875 17 9 17C13.125 17 13.6875 16.775 13.3875 15.275C12.8625 12.65 12.8625 12.6875 14.1375 12.575C15.0375 12.5 15.6 12.6875 16.3125 13.4C17.6625 14.75 17.55 15.5 15.9375 15.5C15.225 15.5 14.625 15.65 14.625 15.875C14.625 16.475 17.1 16.325 17.625 15.6875C18 15.2375 18 14.9 17.625 14C16.875 12.1625 14.4375 11.225 12.75 12.125C12.2625 12.3875 11.775 12.3125 10.9875 11.9375C10.425 11.6375 9.525 11.375 9 11.375C8.475 11.375 7.575 11.6375 7.0125 11.9375ZM10.875 12.6875C12.1125 13.325 12.75 14.3 12.75 15.4625C12.75 16.2125 12.525 16.25 9 16.25C5.475 16.25 5.25 16.2125 5.25 15.4625C5.25 14.3375 5.8875 13.325 7.05 12.725C8.3625 11.975 9.525 11.975 10.875 12.6875Z" fill="black" stroke="black" stroke-width="0.2"/>
</g>
<defs>
<clipPath id="clip0_17_40">
<rect width="18" height="18" fill="white"/>
</clipPath>
</defs>
</svg>
