<svg width="24" height="34" viewBox="0 0 24 34" fill="none" xmlns="http://www.w3.org/2000/svg">
<path fill-rule="evenodd" clip-rule="evenodd" d="M3.27273 14.5C1.80609 14.5 1.5 14.7878 1.5 16.1667V18.6667C1.5 20.0456 1.80609 20.3333 3.27273 20.3333H6.81818V30.3333C6.81818 31.7122 7.12427 32 8.59091 32H12.1364C13.603 32 13.9091 31.7122 13.9091 30.3333V20.3333H17.8901C19.0024 20.3333 19.289 20.1301 19.5946 19.1245L20.3544 16.6245C20.8778 14.902 20.5553 14.5 18.6498 14.5H13.9091V10.3333C13.9091 9.41286 14.7028 8.66667 15.6818 8.66667H20.7273C22.1939 8.66667 22.5 8.37889 22.5 7V3.66667C22.5 2.28778 22.1939 2 20.7273 2H15.6818C10.7866 2 6.81818 5.73096 6.81818 10.3333V14.5H3.27273Z" stroke="#141B34" stroke-width="3" stroke-linejoin="round"/>
</svg>
