<svg width="18" height="16" viewBox="0 0 18 16" fill="none" xmlns="http://www.w3.org/2000/svg">
<path d="M16.5461 1.55674C15.6035 0.61419 14.3557 0.0990334 13.0239 0.0990334C11.6922 0.0990334 10.4405 0.618006 9.49799 1.56055L9.00573 2.05281L8.50583 1.55292C7.56329 0.610374 6.30783 0.0875854 4.97605 0.0875854C3.64809 0.0875854 2.39645 0.606558 1.45772 1.54529C0.515178 2.48783 -0.00379508 3.73948 2.08952e-05 5.07125C2.08952e-05 6.40303 0.52281 7.65085 1.46536 8.5934L8.63176 15.7598C8.73098 15.859 8.86453 15.9124 8.99428 15.9124C9.12402 15.9124 9.25758 15.8628 9.3568 15.7636L16.5385 8.60866C17.481 7.66611 18 6.41447 18 5.0827C18.0038 3.75092 17.4886 2.49928 16.5461 1.55674ZM15.8134 7.87981L8.99428 14.6722L2.19039 7.86836C1.44246 7.12043 1.03033 6.12828 1.03033 5.07125C1.03033 4.01423 1.43864 3.02207 2.18658 2.27796C2.93069 1.53384 3.92284 1.12172 4.97605 1.12172C6.03308 1.12172 7.02905 1.53384 7.77698 2.28177L8.63939 3.14418C8.84164 3.34643 9.166 3.34643 9.36824 3.14418L10.223 2.2894C10.971 1.54147 11.9669 1.12935 13.0201 1.12935C14.0733 1.12935 15.0655 1.54147 15.8134 2.28559C16.5614 3.03352 16.9697 4.02567 16.9697 5.0827C16.9735 6.13972 16.5614 7.13188 15.8134 7.87981Z" fill="black"/>
</svg>
