<svg width="18" height="18" viewBox="0 0 18 18" fill="none" xmlns="http://www.w3.org/2000/svg">
<path d="M3.375 7.12442C3.375 10.231 5.8934 12.7494 9 12.7494C12.1066 12.7494 14.625 10.231 14.625 7.12442C14.625 4.01782 12.1066 1.49942 9 1.49942C5.8934 1.49942 3.375 4.01782 3.375 7.12442Z" stroke="#141B34" stroke-width="1.5" stroke-linecap="round" stroke-linejoin="round"/>
<path d="M6.75 7.625C6.75 7.625 7.3125 7.625 7.875 8.625C7.875 8.625 9.66176 6.125 11.25 5.625" stroke="#141B34" stroke-width="1.5" stroke-linecap="round" stroke-linejoin="round"/>
<path d="M12.6619 11.25L13.1645 13.6575C13.4875 15.2043 13.649 15.9777 13.3173 16.3442C12.9856 16.7107 12.4095 16.3954 11.2574 15.7648L9.55232 14.8315C9.28004 14.6825 9.1439 14.6079 9 14.6079C8.8561 14.6079 8.71996 14.6825 8.44768 14.8315L6.74256 15.7648C5.59048 16.3954 5.01444 16.7107 4.68274 16.3442C4.35104 15.9777 4.51252 15.2043 4.83548 13.6575L5.33814 11.25" stroke="#141B34" stroke-width="1.5" stroke-linejoin="round"/>
</svg>
