<svg width="30" height="30" viewBox="0 0 30 30" fill="none" xmlns="http://www.w3.org/2000/svg">
<path d="M8.49999 8.49998C9.49999 6.99997 20.5 6.5 21.5 8C22.5 9.5 22 20.5 21.5 22C21 23.5 9.5 23 8.5 22C7.50001 21 7.49999 10 8.49999 8.49998Z" fill="#FFCC00"/>
<path d="M17.3202 6.73828C17.3469 6.7405 17.3737 6.74272 17.4012 6.74501C18.746 6.8574 20.1913 6.98521 21.4335 7.54687C21.4573 7.55765 21.4812 7.56843 21.5058 7.57954C21.8627 7.745 22.2388 7.95995 22.3959 8.34196C22.4477 8.5398 22.4325 8.74922 22.4317 8.95241C22.4319 9.00663 22.4321 9.06085 22.4324 9.11508C22.4329 9.26382 22.4329 9.41256 22.4327 9.56131C22.4326 9.72183 22.4331 9.88235 22.4335 10.0429C22.4342 10.3572 22.4344 10.6716 22.4343 10.986C22.4343 11.2415 22.4344 11.4971 22.4347 11.7526C22.4348 11.8262 22.4348 11.8998 22.4349 11.9734C22.435 12.0284 22.435 12.0284 22.435 12.0844C22.4357 12.7773 22.4357 13.4702 22.4354 14.1631C22.4352 14.7969 22.4359 15.4307 22.4371 16.0645C22.4383 16.7154 22.4388 17.3662 22.4387 18.0171C22.4386 18.3825 22.4388 18.7479 22.4397 19.1132C22.4404 19.4243 22.4405 19.7354 22.4399 20.0464C22.4395 20.2051 22.4395 20.3638 22.4402 20.5224C22.4409 20.6678 22.4407 20.8131 22.4399 20.9585C22.4398 21.011 22.4399 21.0635 22.4404 21.1159C22.4434 21.4706 22.4024 21.7029 22.1705 21.9744C20.5805 23.3408 17.6277 23.2988 15.6327 23.332C15.5869 23.3328 15.5412 23.3336 15.4941 23.3344C9.4504 23.4244 9.4504 23.4244 7.82305 21.9719C7.58192 21.672 7.55655 21.4182 7.55982 21.0389C7.55964 20.9846 7.55939 20.9303 7.55906 20.876C7.5584 20.7273 7.55883 20.5787 7.55944 20.43C7.55991 20.2695 7.55937 20.1089 7.55895 19.9484C7.55831 19.6341 7.55861 19.3199 7.55924 19.0056C7.55973 18.7502 7.55987 18.4948 7.55975 18.2393C7.55973 18.203 7.55972 18.1666 7.5597 18.1291C7.55966 18.0553 7.55963 17.9814 7.55959 17.9075C7.55929 17.2544 7.55987 16.6013 7.56092 15.9482C7.56193 15.3145 7.56218 14.6809 7.56164 14.0472C7.56105 13.3571 7.56091 12.6669 7.56152 11.9767C7.56159 11.9031 7.56165 11.8295 7.56172 11.7559C7.56175 11.7197 7.56178 11.6835 7.56181 11.6462C7.56201 11.3911 7.56189 11.136 7.56166 10.8809C7.56139 10.57 7.56163 10.2591 7.56251 9.94822C7.56295 9.78961 7.56317 9.63102 7.56277 9.47241C7.56242 9.32718 7.56272 9.18197 7.56353 9.03674C7.56371 8.98425 7.56366 8.93175 7.56334 8.87926C7.5614 8.52764 7.58362 8.26496 7.84118 8.00391C8.98284 6.92379 11.1984 6.85441 12.6796 6.73828C12.7246 6.73461 12.7697 6.73094 12.8162 6.72716C14.3076 6.61054 15.8294 6.61183 17.3202 6.73828ZM12.6444 7.61719C12.6182 7.61949 12.592 7.62179 12.5649 7.62417C10.4615 7.74851 10.4615 7.74851 8.56628 8.53125C8.50633 8.60369 8.50633 8.60369 8.46081 8.67187C9.68117 9.5823 11.7755 9.64775 13.2421 9.72656C13.2836 9.7288 13.2836 9.7288 13.326 9.73108C13.8731 9.75967 14.4192 9.76884 14.9669 9.76831C15.0081 9.76829 15.0494 9.76827 15.0918 9.76824C18.4151 9.81979 18.4151 9.81979 21.458 8.75482C21.5159 8.70535 21.5159 8.70535 21.5038 8.60156C20.6075 7.74424 18.6224 7.72869 17.463 7.62817C17.4386 7.62603 17.4142 7.62389 17.3891 7.62169C16.6035 7.55385 15.8188 7.53959 15.0306 7.54028C15.0067 7.54029 14.9828 7.5403 14.9581 7.54031C14.1852 7.54069 13.4148 7.54915 12.6444 7.61719ZM8.46081 9.69141C8.45592 10.1055 8.45217 10.5196 8.44988 10.9337C8.44878 11.126 8.44729 11.3182 8.4449 11.5105C8.44261 11.6961 8.44134 11.8816 8.4408 12.0672C8.44041 12.138 8.43965 12.2088 8.43851 12.2796C8.43698 12.3787 8.43677 12.4778 8.43686 12.577C8.4361 12.6063 8.43535 12.6356 8.43456 12.6657C8.43519 12.8172 8.43519 12.8172 8.50529 12.9468C9.57912 13.868 11.8942 13.8725 13.2421 13.9453C13.2696 13.9468 13.2972 13.9483 13.3256 13.9498C13.8786 13.9789 14.4308 13.9876 14.9845 13.9871C15.0265 13.987 15.0686 13.987 15.1119 13.987C17.0328 13.9844 19.1004 13.9107 20.9259 13.2598C20.952 13.2506 20.9782 13.2415 21.0051 13.232C21.2063 13.1559 21.386 13.0436 21.5389 12.8906C21.5423 12.7911 21.5433 12.6925 21.5429 12.593C21.5429 12.5461 21.5429 12.5461 21.5429 12.4984C21.5429 12.3947 21.5426 12.291 21.5424 12.1874C21.5423 12.1157 21.5423 12.044 21.5422 11.9723C21.5421 11.7833 21.5417 11.5942 21.5413 11.4052C21.541 11.2124 21.5408 11.0197 21.5407 10.8269C21.5403 10.4484 21.5397 10.0699 21.5389 9.69141C21.4891 9.70794 21.4392 9.7245 21.3893 9.74108C21.3615 9.7503 21.3338 9.75952 21.3051 9.76901C21.2316 9.79383 21.1584 9.81953 21.0853 9.8459C19.8992 10.2673 18.6383 10.3982 17.3919 10.5071C17.3656 10.5095 17.3394 10.5118 17.3124 10.5142C16.8023 10.5574 16.2928 10.5761 15.781 10.5775C15.7228 10.5777 15.6647 10.5779 15.6066 10.5782C15.4219 10.5789 15.2373 10.579 15.0526 10.5791C15.0212 10.5791 14.9897 10.5791 14.9574 10.5792C14.0325 10.5796 13.1124 10.5723 12.1919 10.4729C12.1159 10.4647 12.0398 10.457 11.9637 10.4494C10.8465 10.3368 9.62601 10.197 8.59937 9.72121C8.5328 9.68672 8.5328 9.68672 8.46081 9.69141ZM8.46081 13.9102C8.45592 14.3242 8.45217 14.7383 8.44988 15.1524C8.44878 15.3447 8.44729 15.537 8.4449 15.7293C8.44261 15.9148 8.44134 16.1003 8.4408 16.2859C8.44041 16.3567 8.43965 16.4275 8.43851 16.4983C8.43698 16.5975 8.43677 16.6966 8.43686 16.7957C8.4361 16.825 8.43535 16.8543 8.43456 16.8845C8.43517 17.0361 8.43517 17.0361 8.50546 17.1656C9.48773 18.0068 11.4784 18.0264 12.7147 18.1289C12.7404 18.131 12.766 18.1332 12.7925 18.1354C15.3904 18.3465 18.4372 18.3659 20.9259 17.4785C20.952 17.4694 20.9782 17.4602 21.0051 17.4508C21.2063 17.3746 21.386 17.2623 21.5389 17.1094C21.5423 17.0099 21.5433 16.9112 21.5429 16.8117C21.5429 16.7649 21.5429 16.7649 21.5429 16.7171C21.5429 16.6135 21.5426 16.5098 21.5424 16.4061C21.5423 16.3344 21.5423 16.2628 21.5422 16.1911C21.5421 16.002 21.5417 15.813 21.5413 15.6239C21.541 15.4312 21.5408 15.2384 21.5407 15.0457C21.5403 14.6672 21.5397 14.2887 21.5389 13.9102C21.5176 13.9181 21.4962 13.926 21.4741 13.9342C21.375 13.9709 21.2759 14.0074 21.1767 14.0439C21.143 14.0564 21.1094 14.0689 21.0748 14.0818C19.8739 14.5222 18.5525 14.6505 17.285 14.7539C17.2591 14.756 17.2331 14.7582 17.2064 14.7604C15.7175 14.8804 14.2034 14.8721 12.7147 14.7539C12.6909 14.752 12.6672 14.7502 12.6427 14.7482C11.3073 14.6418 9.9362 14.4804 8.67916 13.9946C8.61774 13.9708 8.61774 13.9708 8.55507 13.9466C8.52396 13.9346 8.49286 13.9226 8.46081 13.9102ZM8.46081 18.1289C8.45429 18.547 8.44929 18.965 8.44624 19.3831C8.44477 19.5773 8.44278 19.7714 8.43959 19.9655C8.43653 20.1529 8.43485 20.3402 8.43413 20.5276C8.43361 20.5991 8.43259 20.6705 8.43107 20.742C8.42903 20.8422 8.42875 20.9422 8.42888 21.0424C8.42787 21.0719 8.42686 21.1014 8.42582 21.1318C8.4276 21.2589 8.43238 21.3331 8.52172 21.4279C9.50553 22.1802 11.277 22.245 12.4686 22.3477C12.5068 22.3511 12.5449 22.3545 12.5843 22.3581C15.1379 22.5822 18.876 22.8204 21.2225 21.5742C21.2481 21.5658 21.2738 21.5573 21.3002 21.5486C21.41 21.4999 21.4652 21.4593 21.5389 21.3633C21.6011 21.13 21.5755 20.8741 21.5698 20.6352C21.5692 20.5629 21.5688 20.4907 21.5685 20.4185C21.5673 20.2288 21.5642 20.0392 21.5607 19.8495C21.5574 19.6558 21.556 19.462 21.5544 19.2683C21.551 18.8885 21.5456 18.5087 21.5389 18.1289C21.5022 18.1424 21.5022 18.1424 21.4647 18.1562C21.3516 18.1977 21.2383 18.2389 21.125 18.2801C21.0673 18.3013 21.0673 18.3013 21.0084 18.323C19.8427 18.7461 18.5509 18.8819 17.3202 18.9727C17.2846 18.9754 17.2846 18.9754 17.2484 18.9781C14.4138 19.192 11.1387 19.2016 8.46081 18.1289Z" fill="black"/>
<path d="M10.0187 19.8494C10.2775 19.9146 10.5329 19.9715 10.7975 20.0078C10.9399 20.039 11.0015 20.0944 11.0975 20.2031C11.1778 20.3322 11.1773 20.4459 11.1541 20.5923C11.1112 20.7281 11.0098 20.8025 10.8934 20.8761C10.6032 20.9895 10.1792 20.8404 9.88961 20.771C9.82047 20.7545 9.7512 20.7388 9.68187 20.7231C9.1356 20.5947 9.1356 20.5947 8.95382 20.4161C8.88607 20.2798 8.90078 20.1402 8.91784 19.9922C8.96686 19.8567 9.0092 19.8249 9.13317 19.7505C9.40807 19.6491 9.74704 19.7807 10.0187 19.8494Z" fill="black"/>
<path d="M9.9198 11.3372C10.216 11.4152 10.5078 11.4802 10.8112 11.5219C10.975 11.5705 11.0616 11.6684 11.1459 11.814C11.1762 11.9412 11.166 12.0258 11.1327 12.1524C11.0672 12.2547 10.9971 12.3432 10.8866 12.3984C10.5709 12.4248 10.277 12.3711 9.97034 12.3018C9.90763 12.2884 9.90763 12.2884 9.84365 12.2748C9.20903 12.1354 9.20903 12.1354 8.99914 11.9744C8.92686 11.8126 8.92683 11.6584 8.953 11.4844C9.17024 11.1042 9.56939 11.2423 9.9198 11.3372Z" fill="black"/>
<path d="M9.9857 15.5933C10.2438 15.6597 10.4985 15.7181 10.7625 15.7559C10.9369 15.7903 11.0303 15.8686 11.1305 16.0107C11.1777 16.155 11.1769 16.2614 11.1327 16.4062C11.0542 16.5308 10.9862 16.5965 10.8514 16.6523C10.567 16.6925 10.2834 16.6158 10.0077 16.5535C9.96526 16.5443 9.92284 16.5351 9.87914 16.5257C9.15134 16.3655 9.15134 16.3655 8.98815 16.1602C8.92267 16.0292 8.9329 15.8808 8.95299 15.7383C9.16836 15.3357 9.62768 15.4992 9.9857 15.5933Z" fill="black"/>
<path d="M13.3827 20.3438C13.5228 20.4912 13.5711 20.5921 13.5685 20.7972C13.5521 20.9181 13.4959 20.991 13.4178 21.082C13.2816 21.1813 13.1241 21.1615 12.963 21.1589C12.9184 21.1585 12.9184 21.1585 12.8729 21.158C12.0617 21.1466 12.0617 21.1466 11.8402 20.9546C11.7689 20.8041 11.7358 20.643 11.7899 20.4819C12.0182 20.0523 12.9941 20.2087 13.3827 20.3438Z" fill="black"/>
<path d="M12.5038 15.9844C12.5336 15.9863 12.5635 15.9882 12.5943 15.9902C12.6931 15.997 12.7918 16.0047 12.8905 16.0129C12.9224 16.0154 12.9543 16.0178 12.9872 16.0204C13.1913 16.0395 13.3301 16.0724 13.4794 16.2217C13.5414 16.3333 13.5541 16.4192 13.5585 16.5469C13.5076 16.7075 13.4617 16.8144 13.3124 16.8984C13.2073 16.9334 13.1485 16.9358 13.0398 16.9306C12.9903 16.9283 12.9903 16.9283 12.9399 16.9259C12.9054 16.9241 12.871 16.9223 12.8356 16.9204C12.8021 16.9189 12.7686 16.9173 12.7341 16.9157C12.5693 16.9077 12.4046 16.8974 12.2401 16.8833C12.2125 16.881 12.1849 16.8786 12.1565 16.8762C11.9985 16.8488 11.903 16.7622 11.805 16.6414C11.7538 16.519 11.7514 16.4324 11.7655 16.3008C11.9186 15.9543 12.1715 15.962 12.5038 15.9844Z" fill="black"/>
<path d="M12.4708 11.7371C12.5035 11.7391 12.5362 11.7412 12.5698 11.7433C12.6651 11.7499 12.7602 11.7575 12.8553 11.7656C12.893 11.7687 12.893 11.7687 12.9314 11.7718C13.302 11.8048 13.302 11.8048 13.4266 11.9238C13.5372 12.0819 13.5466 12.2084 13.5233 12.3984C13.4506 12.5413 13.3919 12.6232 13.2421 12.6797C12.9518 12.7054 12.6531 12.6807 12.3632 12.6577C12.3354 12.6561 12.3077 12.6546 12.2792 12.6529C12.0704 12.6333 11.9367 12.5599 11.8007 12.3984C11.7582 12.2712 11.7542 12.1807 11.7655 12.0469C11.9234 11.7312 12.1521 11.7139 12.4708 11.7371Z" fill="black"/>
</svg>
