<svg width="18" height="18" viewBox="0 0 18 18" fill="none" xmlns="http://www.w3.org/2000/svg">
<path d="M11.3203 0.73828C11.347 0.740501 11.3738 0.742721 11.4013 0.745009C12.7462 0.857396 14.1914 0.985212 15.4336 1.54687C15.4575 1.55765 15.4813 1.56843 15.5059 1.57954C15.8628 1.745 16.2389 1.95995 16.396 2.34196C16.4479 2.5398 16.4326 2.74922 16.4318 2.95241C16.432 3.00663 16.4322 3.06085 16.4325 3.11508C16.4331 3.26382 16.433 3.41256 16.4328 3.56131C16.4327 3.72183 16.4332 3.88235 16.4336 4.04287C16.4344 4.35725 16.4345 4.67162 16.4345 4.986C16.4344 5.24154 16.4346 5.49707 16.4348 5.75261C16.4349 5.82621 16.435 5.89982 16.435 5.97343C16.4351 6.02838 16.4351 6.02838 16.4351 6.08445C16.4358 6.77732 16.4358 7.47019 16.4355 8.16307C16.4353 8.79689 16.4361 9.4307 16.4372 10.0645C16.4384 10.7154 16.439 11.3662 16.4388 12.0171C16.4387 12.3825 16.4389 12.7479 16.4398 13.1132C16.4405 13.4243 16.4406 13.7354 16.44 14.0464C16.4397 14.2051 16.4396 14.3638 16.4403 14.5224C16.441 14.6678 16.4408 14.8131 16.44 14.9585C16.4399 15.011 16.44 15.0635 16.4405 15.1159C16.4435 15.4706 16.4026 15.7029 16.1706 15.9744C14.5806 17.3408 11.6278 17.2988 9.63281 17.332C9.58706 17.3328 9.54131 17.3336 9.49417 17.3344C3.45052 17.4244 3.45052 17.4244 1.82318 15.9719C1.58204 15.672 1.55667 15.4182 1.55994 15.0389C1.55976 14.9846 1.55951 14.9303 1.55919 14.876C1.55852 14.7273 1.55895 14.5787 1.55956 14.43C1.56003 14.2695 1.55949 14.1089 1.55908 13.9484C1.55843 13.6341 1.55873 13.3199 1.55936 13.0056C1.55985 12.7502 1.55999 12.4948 1.55987 12.2393C1.55986 12.203 1.55984 12.1666 1.55982 12.1291C1.55979 12.0553 1.55975 11.9814 1.55971 11.9075C1.55941 11.2544 1.55999 10.6013 1.56104 9.94818C1.56205 9.31453 1.5623 8.68089 1.56176 8.04724C1.56117 7.35707 1.56103 6.6669 1.56165 5.97674C1.56171 5.90314 1.56178 5.82954 1.56184 5.75594C1.56187 5.71973 1.5619 5.68352 1.56194 5.64621C1.56213 5.3911 1.56202 5.13599 1.56178 4.88088C1.56151 4.56999 1.56175 4.25911 1.56263 3.94822C1.56307 3.78961 1.56329 3.63102 1.5629 3.47241C1.56254 3.32718 1.56284 3.18197 1.56366 3.03674C1.56384 2.98425 1.56378 2.93175 1.56347 2.87926C1.56152 2.52764 1.58374 2.26496 1.8413 2.00391C2.98296 0.923787 5.19853 0.854406 6.67968 0.73828C6.72476 0.734609 6.76983 0.730938 6.81627 0.727156C8.3077 0.610544 9.82951 0.611829 11.3203 0.73828ZM6.64453 1.61719C6.6183 1.61949 6.59208 1.62179 6.56507 1.62417C4.46163 1.74851 4.46163 1.74851 2.5664 2.53125C2.50645 2.60369 2.50645 2.60369 2.46093 2.67187C3.68129 3.5823 5.77562 3.64775 7.24218 3.72656C7.28374 3.7288 7.28374 3.7288 7.32615 3.73108C7.87319 3.75967 8.4193 3.76884 8.96704 3.76831C9.00826 3.76829 9.04948 3.76827 9.09195 3.76824C12.4153 3.81979 12.4153 3.81979 15.4582 2.75482C15.5161 2.70535 15.5161 2.70535 15.5039 2.60156C14.6076 1.74424 12.6225 1.72869 11.4631 1.62817C11.4387 1.62603 11.4143 1.62389 11.3892 1.62169C10.6036 1.55385 9.81896 1.53959 9.03076 1.54028C9.00683 1.54029 8.98291 1.5403 8.95827 1.54031C8.1853 1.54069 7.41491 1.54915 6.64453 1.61719ZM2.46093 3.69141C2.45604 4.10549 2.4523 4.51957 2.45 4.93368C2.4489 5.12596 2.44741 5.31823 2.44502 5.51051C2.44273 5.69606 2.44147 5.8816 2.44092 6.06716C2.44053 6.13796 2.43977 6.20876 2.43863 6.27956C2.4371 6.37872 2.43689 6.47781 2.43699 6.57699C2.43623 6.60627 2.43547 6.63556 2.43469 6.66573C2.43531 6.81722 2.43531 6.81722 2.50541 6.94678C3.57924 7.86798 5.8943 7.87253 7.24218 7.94531C7.26976 7.9468 7.29734 7.94829 7.32575 7.94982C7.87877 7.97885 8.43089 7.98758 8.98461 7.98706C9.02667 7.98704 9.06872 7.98702 9.11205 7.98699C11.0329 7.98438 13.1005 7.91073 14.926 7.25976C14.9522 7.25062 14.9783 7.24147 15.0052 7.23204C15.2064 7.15585 15.3861 7.04355 15.5391 6.89062C15.5424 6.79112 15.5435 6.69247 15.543 6.59295C15.5431 6.54614 15.5431 6.54614 15.5431 6.49838C15.543 6.39471 15.5428 6.29104 15.5425 6.18736C15.5424 6.11568 15.5424 6.04401 15.5423 5.97233C15.5422 5.78328 15.5419 5.59423 15.5415 5.40517C15.5411 5.21242 15.541 5.01967 15.5408 4.82691C15.5404 4.44841 15.5398 4.06991 15.5391 3.69141C15.4892 3.70794 15.4393 3.7245 15.3894 3.74108C15.3617 3.7503 15.3339 3.75952 15.3053 3.76901C15.2317 3.79383 15.1585 3.81953 15.0855 3.8459C13.8993 4.26728 12.6385 4.3982 11.392 4.50714C11.3658 4.50948 11.3395 4.51181 11.3125 4.51422C10.8024 4.55737 10.2929 4.5761 9.78112 4.57745C9.72297 4.5777 9.66482 4.57795 9.60667 4.57819C9.42202 4.57887 9.23738 4.57904 9.05273 4.5791C9.0213 4.57912 8.98986 4.57914 8.95748 4.57916C8.03262 4.57959 7.11253 4.57225 6.19201 4.47285C6.11599 4.46472 6.03994 4.45703 5.96387 4.44944C4.84658 4.33685 3.62613 4.19704 2.5995 3.72121C2.53292 3.68672 2.53292 3.68672 2.46093 3.69141ZM2.46093 7.91015C2.45604 8.32424 2.4523 8.73832 2.45 9.15243C2.4489 9.34471 2.44741 9.53698 2.44502 9.72926C2.44273 9.91481 2.44147 10.1003 2.44092 10.2859C2.44053 10.3567 2.43977 10.4275 2.43863 10.4983C2.4371 10.5975 2.43689 10.6966 2.43699 10.7957C2.43623 10.825 2.43547 10.8543 2.43469 10.8845C2.43529 11.0361 2.43529 11.0361 2.50558 11.1656C3.48785 12.0068 5.47853 12.0264 6.71484 12.1289C6.7405 12.131 6.76616 12.1332 6.7926 12.1354C9.39055 12.3465 12.4374 12.3659 14.926 11.4785C14.9522 11.4694 14.9783 11.4602 15.0052 11.4508C15.2064 11.3746 15.3861 11.2623 15.5391 11.1094C15.5424 11.0099 15.5435 10.9112 15.543 10.8117C15.5431 10.7649 15.5431 10.7649 15.5431 10.7171C15.543 10.6135 15.5428 10.5098 15.5425 10.4061C15.5424 10.3344 15.5424 10.2628 15.5423 10.1911C15.5422 10.002 15.5419 9.81298 15.5415 9.62392C15.5411 9.43117 15.541 9.23841 15.5408 9.04566C15.5404 8.66716 15.5398 8.28866 15.5391 7.91015C15.5177 7.9181 15.4963 7.92604 15.4743 7.93423C15.3752 7.97095 15.276 8.00743 15.1768 8.04391C15.1432 8.05641 15.1096 8.0689 15.0749 8.08177C13.874 8.52219 12.5526 8.65053 11.2852 8.7539C11.2592 8.75603 11.2332 8.75816 11.2065 8.76036C9.7176 8.88038 8.20357 8.87205 6.71484 8.7539C6.69106 8.75203 6.66728 8.75016 6.64278 8.74823C5.30739 8.64176 3.93632 8.48042 2.67929 7.99455C2.61786 7.97084 2.61786 7.97084 2.55519 7.94664C2.52409 7.9346 2.49298 7.92256 2.46093 7.91015ZM2.46093 12.1289C2.45441 12.547 2.44942 12.965 2.44636 13.3831C2.44489 13.5773 2.4429 13.7714 2.43971 13.9655C2.43666 14.1529 2.43498 14.3402 2.43425 14.5276C2.43373 14.5991 2.43271 14.6705 2.4312 14.742C2.42915 14.8422 2.42887 14.9422 2.429 15.0424C2.42799 15.0719 2.42698 15.1014 2.42594 15.1318C2.42773 15.2589 2.4325 15.3331 2.52184 15.4279C3.50566 16.1802 5.27716 16.245 6.46874 16.3477C6.5069 16.3511 6.54506 16.3545 6.58438 16.3581C9.13798 16.5822 12.8761 16.8204 15.2227 15.5742C15.2483 15.5658 15.2739 15.5573 15.3003 15.5486C15.4101 15.4999 15.4653 15.4593 15.5391 15.3633C15.6012 15.13 15.5757 14.8741 15.57 14.6352C15.5694 14.5629 15.5689 14.4907 15.5686 14.4185C15.5674 14.2288 15.5643 14.0392 15.5608 13.8495C15.5575 13.6558 15.5561 13.462 15.5545 13.2683C15.5511 12.8885 15.5457 12.5087 15.5391 12.1289C15.5023 12.1424 15.5023 12.1424 15.4649 12.1562C15.3517 12.1977 15.2384 12.2389 15.1251 12.2801C15.0674 12.3013 15.0674 12.3013 15.0085 12.323C13.8428 12.7461 12.551 12.8819 11.3203 12.9727C11.2848 12.9754 11.2848 12.9754 11.2485 12.9781C8.41387 13.192 5.13881 13.2016 2.46093 12.1289Z" fill="black"/>
<path d="M4.0188 13.8494C4.27763 13.9146 4.53302 13.9716 4.79767 14.0078C4.93997 14.039 5.00162 14.0945 5.09765 14.2031C5.17792 14.3323 5.17743 14.4459 5.15423 14.5923C5.11134 14.7282 5.00989 14.8025 4.89354 14.8761C4.60329 14.9895 4.17929 14.8404 3.88973 14.771C3.8206 14.7545 3.75132 14.7388 3.682 14.7231C3.13572 14.5947 3.13572 14.5947 2.95395 14.4161C2.88619 14.2798 2.9009 14.1403 2.91796 13.9922C2.96698 13.8567 3.00933 13.8249 3.1333 13.7505C3.40819 13.6491 3.74716 13.7807 4.0188 13.8494Z" fill="black"/>
<path d="M3.91995 5.33717C4.21615 5.41524 4.5079 5.48019 4.81135 5.52187C4.97518 5.57051 5.06174 5.6684 5.14603 5.81397C5.17631 5.94116 5.16615 6.02579 5.13284 6.15235C5.06739 6.25466 4.99723 6.3432 4.88675 6.39845C4.57106 6.42482 4.27718 6.37114 3.97049 6.30177C3.90778 6.28844 3.90778 6.28844 3.8438 6.27485C3.20918 6.13545 3.20918 6.13545 2.9993 5.97437C2.92701 5.81259 2.92699 5.65839 2.95315 5.48438C3.17039 5.10422 3.56954 5.24233 3.91995 5.33717Z" fill="black"/>
<path d="M3.98586 9.59326C4.24399 9.6597 4.49861 9.71813 4.76267 9.7559C4.93706 9.79028 5.03047 9.86856 5.13063 10.0107C5.1778 10.155 5.17703 10.2614 5.13283 10.4062C5.05432 10.5308 4.98635 10.5965 4.85158 10.6523C4.56715 10.6925 4.28351 10.6158 4.00783 10.5535C3.96541 10.5443 3.92299 10.5351 3.87929 10.5257C3.15149 10.3655 3.15149 10.3655 2.9883 10.1602C2.92283 10.0292 2.93306 9.88084 2.95314 9.73828C3.16852 9.33566 3.62784 9.49915 3.98586 9.59326Z" fill="black"/>
<path d="M7.38281 14.3438C7.52292 14.4912 7.57123 14.5921 7.56862 14.7972C7.55221 14.9181 7.49597 14.991 7.41797 15.082C7.28174 15.1813 7.12418 15.1615 6.96314 15.1589C6.91853 15.1585 6.91853 15.1585 6.87301 15.158C6.06183 15.1466 6.06183 15.1466 5.84033 14.9546C5.76903 14.8041 5.73596 14.643 5.79007 14.4819C6.01834 14.0523 6.99427 14.2087 7.38281 14.3438Z" fill="black"/>
<path d="M6.50393 9.98437C6.53379 9.98629 6.56366 9.98821 6.59443 9.99019C6.69325 9.99697 6.79193 10.0047 6.89065 10.0129C6.92257 10.0154 6.9545 10.0178 6.98739 10.0204C7.19141 10.0395 7.33022 10.0724 7.47951 10.2217C7.54152 10.3333 7.55429 10.4192 7.55861 10.5469C7.50776 10.7075 7.46183 10.8144 7.31252 10.8984C7.20748 10.9334 7.14867 10.9358 7.03992 10.9306C6.99047 10.9283 6.99047 10.9283 6.94002 10.9259C6.9056 10.9241 6.87118 10.9223 6.83571 10.9204C6.80225 10.9189 6.76878 10.9173 6.7343 10.9157C6.5694 10.9077 6.40475 10.8974 6.24026 10.8833C6.21266 10.881 6.18506 10.8786 6.15662 10.8762C5.99861 10.8488 5.90317 10.7622 5.8052 10.6414C5.75397 10.519 5.75154 10.4324 5.76565 10.3008C5.91875 9.95428 6.17164 9.96199 6.50393 9.98437Z" fill="black"/>
<path d="M6.47094 5.73706C6.50362 5.73913 6.53629 5.74121 6.56995 5.74334C6.66522 5.74986 6.76032 5.75747 6.85546 5.76562C6.89311 5.76869 6.89311 5.76869 6.93153 5.77182C7.30212 5.80479 7.30212 5.80479 7.42675 5.92383C7.53737 6.08185 7.54675 6.20836 7.52343 6.39844C7.45069 6.54133 7.39202 6.62321 7.24218 6.67969C6.95191 6.70535 6.65324 6.6807 6.36327 6.65771C6.33556 6.65614 6.30784 6.65456 6.27929 6.65294C6.07056 6.63334 5.93684 6.55986 5.80077 6.39844C5.75836 6.2712 5.75427 6.18074 5.76562 6.04687C5.92347 5.73117 6.15217 5.71388 6.47094 5.73706Z" fill="black"/>
</svg>
